# xmcd
#
# Track frame offsets:
# 150
# 21154
# 35139
# 48567
# 61335
# 77290
# 89511
# 104006
# 116055
# 130634
# 142553
# 155699
# 174000
# 198430
# 213150
# 234385
# 247231
#
# Disc length: 3494 seconds
#
#
# Revision: 0
# Processed by: cddbd v1.5.2PL0 Copyright (c) Steve Scherf et al.
# Submitted via: FreeRIP 2.951 
#
DISCID=e20da411
DTITLE=Various Artist - Country Series 02
DYEAR=1900
DGENRE=Country
TTITLE0=Clarence Carter - Strok'in
TTITLE1=Dewight Yokam - Guitars and Cadillacs
TTITLE2=Hank Williams Jr - All My Roudy Friends
TTITLE3=Alabama - I'm In A Hurry
TTITLE4=Alan Jackson - Jukebox With A Country Song
TTITLE5=Marty Stewart - Hillbilly Rock
TTITLE6=Bellamy Brothers - Get Into Regge Cowboy
TTITLE7=George Strait - Gulf Of Mexico
TTITLE8=Marty Stewart - Rock My World
TTITLE9=Pam Tillis - My Baby Loves Me
TTITLE10=Sannondoaha - If Bubba Can Dance
TTITLE11=Vince Gill - Look At Us
TTITLE12=The Judds - Love Can Build A Bridge
TTITLE13=Diamond Rio - Mirror Mirror
TTITLE14=Arron Tippin - Ain't Nothing Wrong With The Radio
TTITLE15=Arron Tippin - Ain't Nothing Wrong With The Radio
TTITLE16=Pam Tillis - Maybe It Was Memphis
EXTD=Bill's Custom Country Collection
EXTT0=
EXTT1=
EXTT2=
EXTT3=
EXTT4=
EXTT5=
EXTT6=
EXTT7=
EXTT8=
EXTT9=
EXTT10=
EXTT11=
EXTT12=
EXTT13=
EXTT14=
EXTT15=
EXTT16=
PLAYORDER=
